<svg xmlns="http://www.w3.org/2000/svg" viewBox="0 0 1280 720" role="img" aria-label="AI Music Videos placeholder">
  <defs>
    <linearGradient id="bg" x1="0" y1="0" x2="1" y2="1">
      <stop offset="0" stop-color="#0f0b1a"/>
      <stop offset="1" stop-color="#1a0f2e"/>
    </linearGradient>
    <radialGradient id="glow" cx="0.5" cy="0.45" r="0.6">
      <stop offset="0" stop-color="#c084fc" stop-opacity="0.35"/>
      <stop offset="1" stop-color="#c084fc" stop-opacity="0"/>
    </radialGradient>
  </defs>
  <rect width="1280" height="720" fill="url(#bg)"/>
  <rect width="1280" height="720" fill="url(#glow)"/>
  <g transform="translate(640 360)" fill="none" stroke="#c084fc" stroke-opacity="0.8" stroke-width="3" stroke-linecap="round">
    <path d="M-280 0 L-240 0"/>
    <path d="M-200 -40 L-160 -40 M-200 40 L-160 40"/>
    <path d="M-120 -80 L-80 -80 M-120 80 L-80 80"/>
    <path d="M-40 -30 L0 -30 M-40 30 L0 30"/>
    <path d="M40 -100 L80 -100 M40 100 L80 100"/>
    <path d="M120 -50 L160 -50 M120 50 L160 50"/>
    <path d="M200 -20 L240 -20 M200 20 L240 20"/>
  </g>
  <text x="640" y="560" text-anchor="middle" fill="#f5f5f5" font-family="system-ui, -apple-system, Segoe UI, Arial" font-size="38" font-weight="900" letter-spacing="6">AI MUSIC VIDEOS</text>
  <text x="640" y="605" text-anchor="middle" fill="#c084fc" font-family="system-ui, -apple-system, Segoe UI, Arial" font-size="18" font-weight="700" letter-spacing="8">COMING SOON</text>
</svg>
